<svg xmlns:dc="http://purl.org/dc/elements/1.1/" xmlns:cc="http://creativecommons.org/ns#" xmlns:rdf="http://www.w3.org/1999/02/22-rdf-syntax-ns#" xmlns:svg="http://www.w3.org/2000/svg" xmlns="http://www.w3.org/2000/svg" xmlns:sodipodi="http://sodipodi.sourceforge.net/DTD/sodipodi-0.dtd" xmlns:inkscape="http://www.inkscape.org/namespaces/inkscape" version="1.1" id="Layer_1" x="0px" y="0px" viewBox="0 0 174.8 192.5" style="enable-background:new 0 0 174.8 192.5;" xml:space="preserve" sodipodi:docname="oracle.svg" inkscape:version="0.92.5 (2060ec1f9f, 2020-04-08)"><metadata id="metadata21"><rdf:RDF><cc:Work rdf:about=""><dc:format>image/svg+xml</dc:format><dc:type rdf:resource="http://purl.org/dc/dcmitype/StillImage"/><dc:title/></cc:Work></rdf:RDF></metadata><defs id="defs19"/><sodipodi:namedview pagecolor="#ffffff" bordercolor="#666666" borderopacity="1" objecttolerance="10" gridtolerance="10" guidetolerance="10" inkscape:pageopacity="0" inkscape:pageshadow="2" inkscape:window-width="1920" inkscape:window-height="1136" id="namedview17" showgrid="false" inkscape:zoom="2.4519481" inkscape:cx="21.496684" inkscape:cy="45.941177" inkscape:window-x="0" inkscape:window-y="27" inkscape:window-maximized="1" inkscape:current-layer="Layer_1"/>
<style type="text/css" id="style2">
	.st0{opacity:0.5;fill:#3498DB;}
	.st1{fill:#3498DB;}
	.st2{fill:#FFFFFF;}
</style>
<g id="g14" style="fill:#d12124">
	<path class="st0" d="M159.7,37.1L102.3,4c-9.3-5.4-20.8-5.4-30,0l-15,8.7v0.1l-16.3,9.3L15,37.1C5.7,42.5,0,52.4,0,63.1v66.2   C0,140,5.7,150,15,155.4l57.4,33c9.3,5.4,20.8,5.4,30,0l57.4-33c9.3-5.4,15-15.3,15-26.1V63.1C174.7,52.4,168.9,42.5,159.7,37.1z" id="path4" style="fill:#d12124"/>
	<path class="st1" d="M148.3,46.4L99.9,18.5c-7.9-4.5-17.5-4.5-25.3,0L62,25.9v0.1l-13.8,7.8L26.4,46.4c-7.9,4.5-12.6,12.9-12.6,22   v55.8c0,9,4.8,17.4,12.6,22L74.7,174c7.9,4.5,17.5,4.5,25.3,0l48.4-27.8c7.9-4.5,12.6-12.9,12.6-22V68.3   C160.9,59.2,156.1,50.9,148.3,46.4z" id="path6" style="fill:#d12124"/>

</g>
<path style="fill:#ffffff;stroke-width:0.04122833" d="m 36.432521,136.22043 c -0.449192,-0.0654 -1.17588,-0.2688 -1.569154,-0.43904 -0.765377,-0.33133 -1.385936,-0.76766 -1.996585,-1.40387 -1.00622,-1.04834 -1.662641,-2.46465 -1.867864,-4.03018 -0.07991,-0.60964 -0.07991,-1.73406 0,-2.34371 0.205306,-1.56616 0.861599,-2.9818 1.868893,-4.03126 0.864487,-0.90067 1.819557,-1.44705 3.057442,-1.74911 l 0.474126,-0.1157 5.730738,-0.0142 c 6.516297,-0.016 6.314931,-0.0245 7.338642,0.30795 1.636724,0.53152 3.015556,1.8295 3.74531,3.52569 0.455927,1.05973 0.6439,2.00803 0.6439,3.24841 0,1.38871 -0.244818,2.46204 -0.825928,3.62105 -0.887303,1.7697 -2.342437,2.90781 -4.293773,3.35832 -0.380727,0.0879 -0.412351,0.0884 -6.216482,0.0956 -3.299498,0.004 -5.944783,-0.009 -6.089265,-0.03 z m 11.976419,-2.33578 c 1.639366,-0.43729 2.71117,-1.66734 3.087771,-3.54365 0.102131,-0.50883 0.102131,-1.82221 0,-2.33103 -0.378167,-1.88412 -1.468116,-3.12696 -3.109193,-3.54536 l -0.36175,-0.0922 h -5.648281 -5.648281 l -0.406998,0.11228 c -0.759228,0.20945 -1.33082,0.54823 -1.844418,1.09318 -0.833472,0.88435 -1.27312,2.12673 -1.27312,3.59764 0,2.59975 1.42408,4.49251 3.596673,4.78041 0.141729,0.0187 2.734481,0.0309 5.761672,0.0271 l 5.503981,-0.007 z m 6.90382,-4.71542 0.01042,-7.09754 6.081179,0.009 c 3.744649,0.005 6.184141,0.0238 6.349162,0.0487 0.860662,0.13058 1.747385,0.61097 2.370971,1.2845 1.908022,2.06083 1.321479,5.36866 -1.175349,6.62845 -0.727083,0.36684 -1.210877,0.45297 -2.551251,0.45418 l -1.015,8.5e-4 0.640697,0.62782 c 0.654557,0.6414 0.981411,0.9585 3.069449,2.97783 0.656519,0.63492 1.426108,1.38126 1.7102,1.65854 l 0.516533,0.50414 -1.649789,8.5e-4 -1.649784,8.5e-4 -4.126119,-4.00945 c -2.269364,-2.2052 -4.118388,-4.0185 -4.108947,-4.02956 0.0094,-0.0111 1.718071,-0.0218 3.796948,-0.0239 2.906358,-0.003 3.822641,-0.0159 3.965299,-0.0558 0.950186,-0.26629 1.568376,-1.21248 1.409527,-2.15739 -0.129239,-0.76875 -0.67135,-1.37142 -1.406179,-1.56324 -0.248566,-0.0649 -0.666575,-0.071 -4.981669,-0.0732 l -4.710336,-0.003 v 5.95749 5.9575 h -1.278193 -1.278198 z m 16.987498,6.88108 c 0.07581,-0.11905 1.02604,-1.63573 2.111624,-3.37042 1.085579,-1.73468 2.62504,-4.19292 3.421024,-5.46275 0.795982,-1.26984 1.75262,-2.79783 2.125855,-3.39554 0.373237,-0.59771 0.749164,-1.16753 0.835389,-1.26626 0.491838,-0.56313 1.51261,-0.62621 2.06321,-0.1275 0.134598,0.12191 0.478603,0.63216 1.185937,1.75901 0.547987,0.87302 1.352867,2.15315 1.788617,2.84476 0.435751,0.69161 1.651545,2.62109 2.701758,4.28775 2.625659,4.16681 3.091049,4.90903 3.091049,4.9296 0,0.01 -0.61783,0.0178 -1.37297,0.0178 h -1.372968 l -3.480504,-5.54432 c -1.914277,-3.04938 -3.494608,-5.53021 -3.511846,-5.51297 -0.01724,0.0172 -0.690265,1.0697 -1.495619,2.3388 l -1.464274,2.30747 2.721033,0.0206 2.721032,0.0206 -0.705693,1.14408 -0.705692,1.14409 h -2.734283 -2.734284 l -1.270394,2.03905 -1.270392,2.03904 -1.392723,0.002 -1.392725,0.002 0.137839,-0.21645 z m 23.880193,0.18804 c -2.7045,-0.35092 -4.73429,-2.23953 -5.41966,-5.04268 -0.17422,-0.71253 -0.22649,-1.17879 -0.22649,-2.02019 0,-0.84404 0.0521,-1.30677 0.22881,-2.03042 0.58106,-2.38013 2.20694,-4.17496 4.35684,-4.80957 0.85131,-0.2513 0.74482,-0.24737 7.189189,-0.26503 l 5.88131,-0.0161 -0.29488,0.47952 c -0.16218,0.26373 -0.48036,0.78004 -0.70707,1.14736 l -0.41219,0.66784 -5.19486,0.0131 c -5.168459,0.013 -5.196529,0.0136 -5.524679,0.10189 -1.64308,0.44236 -2.67362,1.6095 -3.07926,3.48742 -0.076,0.35199 -0.0907,0.55033 -0.0907,1.224 0,0.67368 0.0147,0.87203 0.0907,1.22401 0.40607,1.8799 1.43379,3.04389 3.07926,3.48755 0.32929,0.0888 0.33927,0.089 6.094499,0.10179 3.38097,0.008 5.75917,0.0281 5.75136,0.0499 -0.008,0.0204 -0.32873,0.52936 -0.71421,1.13113 l -0.70089,1.09411 -5.0917,-0.005 c -2.800429,-0.003 -5.147349,-0.0119 -5.215379,-0.0208 z m 13.854799,-7.03287 c 8.5e-4,-3.88371 0.0134,-7.07959 0.0272,-7.10197 0.0156,-0.0251 0.44758,-0.0405 1.13171,-0.0401 l 1.10656,5.7e-4 0.0105,5.96761 0.0104,5.96761 h 4.98849 c 2.74366,0 4.98849,0.009 4.98849,0.0191 0,0.0105 -0.317,0.52068 -0.70443,1.13378 l -0.70444,1.11472 h -5.42828 -5.42829 l 0.002,-7.06127 z m 17.84979,7.00132 c -2.56523,-0.40288 -4.51251,-2.26314 -5.19497,-4.9628 -0.32511,-1.28608 -0.32666,-2.83772 -0.004,-4.12993 0.68407,-2.74067 2.77144,-4.68782 5.3434,-4.98443 0.25964,-0.0299 2.36205,-0.0502 6.23675,-0.0602 l 5.84509,-0.015 -0.0552,0.087 c -0.0303,0.0479 -0.34918,0.56474 -0.7085,1.14864 l -0.65333,1.06162 h -4.97899 c -3.25513,0 -5.09065,0.015 -5.30149,0.0435 -0.90431,0.12174 -1.65847,0.49209 -2.27756,1.11841 -0.35733,0.36151 -0.60209,0.71886 -0.84814,1.23828 -0.14737,0.3111 -0.39142,1.05656 -0.39189,1.19705 0,0.017 3.0812,0.0309 6.84723,0.0309 3.83221,0 6.84129,0.0157 6.8336,0.0356 -0.008,0.0196 -0.32914,0.53826 -0.71463,1.15257 l -0.70088,1.11695 -6.1373,0.002 -6.1373,0.002 0.028,0.1495 c 0.0605,0.32274 0.24149,0.87615 0.39026,1.19362 0.48555,1.03613 1.30691,1.80305 2.29133,2.13943 0.62323,0.21297 0.317,0.2023 6.4959,0.22628 l 5.75379,0.0223 -0.72393,1.12319 -0.72394,1.1232 -5.0917,-0.003 c -3.86886,-0.003 -5.17091,-0.0163 -5.42152,-0.0556 z m 14.31458,-11.87326 c -0.86221,-0.30757 -1.12903,-1.35241 -0.51651,-2.0226 0.25858,-0.28292 0.53104,-0.40323 0.92044,-0.40643 0.50295,-0.004 0.91131,0.24227 1.13139,0.68267 0.10275,0.20564 0.12607,0.30313 0.12607,0.52698 0,0.15107 -0.0311,0.3661 -0.0691,0.47785 -0.094,0.27632 -0.45557,0.63793 -0.73189,0.7319 -0.24259,0.0825 -0.64354,0.087 -0.86041,0.01 z m 0.91463,-0.2512 c 0.4402,-0.23958 0.63516,-0.75929 0.47996,-1.27946 -0.0817,-0.27381 -0.26533,-0.48441 -0.53924,-0.61843 -0.19761,-0.0967 -0.26326,-0.10856 -0.50454,-0.0913 -0.31175,0.0223 -0.46021,0.0863 -0.66445,0.28641 -0.2068,0.20262 -0.30439,0.45349 -0.3014,0.77478 0.003,0.30884 0.0767,0.51246 0.26228,0.72387 0.31711,0.36117 0.82774,0.44341 1.26739,0.20412 z m -0.98483,-0.94681 v -0.72149 l 0.27829,8.5e-4 c 0.55907,0.002 0.75567,0.1073 0.7598,0.40706 0.003,0.19181 -0.12541,0.37529 -0.26193,0.37529 -0.11038,0 -0.0953,0.0504 0.11184,0.37353 l 0.18711,0.29191 -0.11213,-0.0132 c -0.0892,-0.0105 -0.14973,-0.0743 -0.29611,-0.3121 -0.16934,-0.27514 -0.19497,-0.29891 -0.32235,-0.29891 h -0.13838 v 0.30921 c 0,0.30235 -0.003,0.30922 -0.10307,0.30922 h -0.10307 v -0.72149 z m 0.71359,-0.10006 c 0.10291,-0.0391 0.17014,-0.19689 0.12929,-0.30336 -0.0353,-0.092 -0.20793,-0.15316 -0.43254,-0.15316 h -0.2042 v 0.24737 0.24737 h 0.20346 c 0.1119,0 0.2487,-0.0172 0.30399,-0.0382 z m -82.242602,-4.40141 c -3.907819,-0.25033 -7.353229,-1.07469 -10.624792,-2.5421 -9.163493,-4.11016 -15.612563,-12.9541 -17.471911,-23.960129 -0.367922,-2.177838 -0.527353,-3.98492 -0.554706,-6.287324 -0.09908,-8.339658 2.308561,-16.126022 6.848763,-22.14908 4.253386,-5.642564 10.16245,-9.427831 16.999546,-10.889676 1.238763,-0.264862 2.335506,-0.423617 4.225903,-0.611704 0.597098,-0.05941 50.455459,-0.08785 51.432339,-0.02934 4.81413,0.288349 9.22351,1.569218 13.1106,3.808463 6.32744,3.645051 11.10827,9.675884 13.60506,17.162238 1.01678,3.048708 1.60422,6.069654 1.86207,9.575753 0.059,0.802208 0.0743,3.990366 0.0238,4.947395 -0.2849,5.394614 -1.72597,10.736214 -4.09869,15.192644 -4.60689,8.65257 -12.41022,14.19639 -21.84359,15.51864 -0.70756,0.0992 -1.64769,0.19366 -2.48824,0.25007 -0.4254,0.0286 -8.86173,0.04 -25.726476,0.035 -13.801434,-0.004 -25.186278,-0.0135 -25.299656,-0.0208 z m 50.525312,-10.81941 c 6.31666,-0.44957 11.46539,-3.58769 14.70502,-8.9626 1.16815,-1.938127 2.03083,-4.058395 2.62868,-6.460776 0.5766,-2.316934 0.8168,-4.351142 0.81933,-6.938436 0.002,-1.522192 -0.0368,-2.26337 -0.18214,-3.52502 -0.57997,-5.034998 -2.44344,-9.526823 -5.3022,-12.78078 -1.57157,-1.788826 -3.33707,-3.166439 -5.39189,-4.207288 -2.15519,-1.091683 -4.45289,-1.719662 -7.11189,-1.943726 -0.94494,-0.07963 -49.664342,-0.07948 -50.545923,1.65e-4 -2.498264,0.225666 -4.510965,0.740505 -6.559728,1.677944 -2.600918,1.190073 -5.025997,3.171031 -6.810038,5.562859 -2.696096,3.614602 -4.243833,8.152631 -4.563775,13.381184 -0.05357,0.875537 -0.05342,2.71526 2.88e-4,3.586868 0.136666,2.217305 0.467849,4.167285 1.050454,6.184993 0.845466,2.928059 2.130225,5.447433 3.93119,7.708943 0.457085,0.57398 1.794561,1.96154 2.339345,2.42695 1.741287,1.48758 3.867902,2.67732 6.035906,3.37679 1.553443,0.50119 3.476109,0.85642 5.029856,0.92932 0.685932,0.0322 49.469725,0.0152 49.927495,-0.0174 z" id="path88" inkscape:connector-curvature="0"/>
</svg>
